<svg width="640" height="460" viewBox="0 0 640 460" fill="none" xmlns="http://www.w3.org/2000/svg">
  <defs><linearGradient id="c" x1="0" y1="0" x2="640" y2="460" gradientUnits="userSpaceOnUse"><stop stop-color="#0A6571"/><stop offset="1" stop-color="#042A32"/></linearGradient></defs>
  <rect width="640" height="460" rx="34" fill="url(#c)"/>
  <circle cx="90" cy="88" r="76" fill="#F59B22" fill-opacity="0.15"/>
  <circle cx="550" cy="360" r="96" fill="#1FC6D6" fill-opacity="0.15"/>
  <rect x="130" y="72" width="380" height="316" rx="26" fill="#F8FFFF"/>
  <rect x="164" y="114" width="210" height="20" rx="10" fill="#073943" fill-opacity="0.85"/>
  <rect x="164" y="162" width="312" height="42" rx="12" fill="#E6F5F7"/>
  <rect x="164" y="222" width="312" height="42" rx="12" fill="#E6F5F7"/>
  <rect x="164" y="282" width="312" height="42" rx="12" fill="#E6F5F7"/>
  <rect x="164" y="342" width="150" height="34" rx="17" fill="#F59B22"/>
  <path d="M412 122l32 24 32-24" stroke="#1FC6D6" stroke-width="8" stroke-linecap="round" stroke-linejoin="round"/>
  <circle cx="490" cy="92" r="34" fill="#1FC6D6"/>
  <path d="M475 92l10 10 20-24" stroke="#073943" stroke-width="8" stroke-linecap="round" stroke-linejoin="round"/>
</svg>
