<svg width="720" height="520" viewBox="0 0 720 520" fill="none" xmlns="http://www.w3.org/2000/svg">
  <defs>
    <linearGradient id="bg" x1="0" y1="0" x2="720" y2="520" gradientUnits="userSpaceOnUse">
      <stop stop-color="#0A6571"/>
      <stop offset="1" stop-color="#042A32"/>
    </linearGradient>
    <linearGradient id="accent" x1="160" y1="100" x2="560" y2="430" gradientUnits="userSpaceOnUse">
      <stop stop-color="#1FC6D6"/>
      <stop offset="1" stop-color="#F59B22"/>
    </linearGradient>
    <filter id="shadow" x="-20" y="-20" width="760" height="560" filterUnits="userSpaceOnUse" color-interpolation-filters="sRGB">
      <feDropShadow dx="0" dy="24" stdDeviation="28" flood-color="#000000" flood-opacity="0.28"/>
    </filter>
  </defs>
  <rect width="720" height="520" rx="38" fill="url(#bg)"/>
  <circle cx="120" cy="95" r="80" fill="#1FC6D6" fill-opacity="0.18"/>
  <circle cx="610" cy="120" r="110" fill="#F59B22" fill-opacity="0.16"/>
  <circle cx="620" cy="420" r="90" fill="#1FC6D6" fill-opacity="0.12"/>

  <g filter="url(#shadow)">
    <rect x="84" y="78" width="552" height="364" rx="28" fill="#FFFFFF" fill-opacity="0.10" stroke="#FFFFFF" stroke-opacity="0.20"/>
    <rect x="118" y="112" width="240" height="44" rx="12" fill="#FFFFFF" fill-opacity="0.16"/>
    <rect x="118" y="176" width="484" height="18" rx="9" fill="#FFFFFF" fill-opacity="0.18"/>
    <rect x="118" y="208" width="390" height="18" rx="9" fill="#FFFFFF" fill-opacity="0.12"/>

    <rect x="118" y="258" width="142" height="126" rx="22" fill="#073943" stroke="#1FC6D6" stroke-opacity="0.55"/>
    <rect x="289" y="258" width="142" height="126" rx="22" fill="#073943" stroke="#F59B22" stroke-opacity="0.65"/>
    <rect x="460" y="258" width="142" height="126" rx="22" fill="#073943" stroke="#1FC6D6" stroke-opacity="0.55"/>

    <circle cx="189" cy="303" r="25" fill="#1FC6D6"/>
    <circle cx="360" cy="303" r="25" fill="#F59B22"/>
    <circle cx="531" cy="303" r="25" fill="#1FC6D6"/>
    <path d="M148 360c12-28 70-28 82 0" stroke="#FFFFFF" stroke-width="16" stroke-linecap="round"/>
    <path d="M319 360c12-28 70-28 82 0" stroke="#FFFFFF" stroke-width="16" stroke-linecap="round"/>
    <path d="M490 360c12-28 70-28 82 0" stroke="#FFFFFF" stroke-width="16" stroke-linecap="round"/>
  </g>

  <path d="M150 430C260 390 445 478 585 414" stroke="url(#accent)" stroke-width="12" stroke-linecap="round"/>
</svg>
